HIERARCHY
ROOT Character1_Hips
{
  OFFSET -0.000187119 14.0115 -0.879213
  CHANNELS 6 Xposition Yposition Zposition Zrotation Xrotation Yrotation
  JOINT Character1_LeftUpLeg
  {
    OFFSET 1.33984 -0.942849 0
    CHANNELS 6 Xposition Yposition Zposition Zrotation Xrotation Yrotation
    JOINT Character1_LeftLeg
    {
      OFFSET 1.03111 -5.48941 0.514161
      CHANNELS 6 Xposition Yposition Zposition Zrotation Xrotation Yrotation
      JOINT Character1_LeftFoot
      {
        OFFSET 0.584472 -7.37543 -1.61389
        CHANNELS 6 Xposition Yposition Zposition Zrotation Xrotation Yrotation
        JOINT Character1_LeftToeBase
        {
          OFFSET 0.308451 -0.815751 3.43202
          CHANNELS 6 Xposition Yposition Zposition Zrotation Xrotation Yrotation
          End Site
          {
            OFFSET 0 0 0
          }
        }
      }
    }
  }
  JOINT Character1_RightUpLeg
  {
    OFFSET -1.33984 -0.942849 0
    CHANNELS 6 Xposition Yposition Zposition Zrotation Xrotation Yrotation
    JOINT Character1_RightLeg
    {
      OFFSET -1.03111 -5.48942 0.514162
      CHANNELS 6 Xposition Yposition Zposition Zrotation Xrotation Yrotation
      JOINT Character1_RightFoot
      {
        OFFSET -0.584473 -7.37542 -1.61389
        CHANNELS 6 Xposition Yposition Zposition Zrotation Xrotation Yrotation
        JOINT Character1_RightToeBase
        {
          OFFSET -0.308451 -0.815751 3.43202
          CHANNELS 6 Xposition Yposition Zposition Zrotation Xrotation Yrotation
          End Site
          {
            OFFSET 0 0 0
          }
        }
      }
    }
  }
  JOINT Character1_Spine
  {
    OFFSET 0 1.05262 0
    CHANNELS 6 Xposition Yposition Zposition Zrotation Xrotation Yrotation
    JOINT Character1_Spine1
    {
      OFFSET 0 2.01813 0
      CHANNELS 6 Xposition Yposition Zposition Zrotation Xrotation Yrotation
      JOINT Character1_Spine2
      {
        OFFSET 0 2.01813 0
        CHANNELS 6 Xposition Yposition Zposition Zrotation Xrotation Yrotation
        JOINT Character1_LeftShoulder
        {
          OFFSET 1.05262 2.25701 0
          CHANNELS 6 Xposition Yposition Zposition Zrotation Xrotation Yrotation
          JOINT Character1_LeftArm
          {
            OFFSET 1.59242 -0.163556 -0.172859
            CHANNELS 6 Xposition Yposition Zposition Zrotation Xrotation Yrotation
            JOINT Character1_LeftForeArm
            {
              OFFSET 4.24532 -1.87809 -0.325413
              CHANNELS 6 Xposition Yposition Zposition Zrotation Xrotation Yrotation
              JOINT Character1_LeftHand
              {
                OFFSET 2.98612 -1.30588 0.326145
                CHANNELS 6 Xposition Yposition Zposition Zrotation Xrotation Yrotation
                JOINT Character1_LeftHandThumb1
                {
                  OFFSET 0.707166 -0.296377 0.777354
                  CHANNELS 6 Xposition Yposition Zposition Zrotation Xrotation Yrotation
                  JOINT Character1_LeftHandThumb2
                  {
                    OFFSET 0.248522 -0.159516 0.33158
                    CHANNELS 6 Xposition Yposition Zposition Zrotation Xrotation Yrotation
                    JOINT Character1_LeftHandThumb3
                    {
                      OFFSET 0.259194 -0.25406 0.22796
                      CHANNELS 6 Xposition Yposition Zposition Zrotation Xrotation Yrotation
                      JOINT Character1_LeftHandThumb4
                      {
                        OFFSET 0.226666 -0.258213 0.206782
                        CHANNELS 6 Xposition Yposition Zposition Zrotation Xrotation Yrotation
                        End Site
                        {
                          OFFSET 0 0 0
                        }
                      }
                    }
                  }
                }
                JOINT Character1_LeftHandIndex1
                {
                  OFFSET 1.48444 -0.354189 0.611987
                  CHANNELS 6 Xposition Yposition Zposition Zrotation Xrotation Yrotation
                  JOINT Character1_LeftHandIndex2
                  {
                    OFFSET 0.504724 -0.451988 0.0493909
                    CHANNELS 6 Xposition Yposition Zposition Zrotation Xrotation Yrotation
                    JOINT Character1_LeftHandIndex3
                    {
                      OFFSET 0.296443 -0.265513 0.0299127
                      CHANNELS 6 Xposition Yposition Zposition Zrotation Xrotation Yrotation
                      JOINT Character1_LeftHandIndex4
                      {
                        OFFSET 0.197652 -0.217277 0.0208595
                        CHANNELS 6 Xposition Yposition Zposition Zrotation Xrotation Yrotation
                        End Site
                        {
                          OFFSET 0 0 0
                        }
                      }
                    }
                  }
                }
                JOINT Character1_LeftHandMiddle1
                {
                  OFFSET 1.48537 -0.317032 0.212679
                  CHANNELS 6 Xposition Yposition Zposition Zrotation Xrotation Yrotation
                  JOINT Character1_LeftHandMiddle2
                  {
                    OFFSET 0.672059 -0.620936 0.017635
                    CHANNELS 6 Xposition Yposition Zposition Zrotation Xrotation Yrotation
                    JOINT Character1_LeftHandMiddle3
                    {
                      OFFSET 0.264032 -0.32112 0.00884274
                      CHANNELS 6 Xposition Yposition Zposition Zrotation Xrotation Yrotation
                      JOINT Character1_LeftHandMiddle4
                      {
                        OFFSET 0.180854 -0.241264 0.00658415
                        CHANNELS 6 Xposition Yposition Zposition Zrotation Xrotation Yrotation
                        End Site
                        {
                          OFFSET 0 0 0
                        }
                      }
                    }
                  }
                }
                JOINT Character1_LeftHandRing1
                {
                  OFFSET 1.48599 -0.345214 -0.172738
                  CHANNELS 6 Xposition Yposition Zposition Zrotation Xrotation Yrotation
                  JOINT Character1_LeftHandRing2
                  {
                    OFFSET 0.522197 -0.611355 0.0123876
                    CHANNELS 6 Xposition Yposition Zposition Zrotation Xrotation Yrotation
                    JOINT Character1_LeftHandRing3
                    {
                      OFFSET 0.273491 -0.359549 0.00739143
                      CHANNELS 6 Xposition Yposition Zposition Zrotation Xrotation Yrotation
                      JOINT Character1_LeftHandRing4
                      {
                        OFFSET 0.175075 -0.230163 0.00473107
                        CHANNELS 6 Xposition Yposition Zposition Zrotation Xrotation Yrotation
                        End Site
                        {
                          OFFSET 0 0 0
                        }
                      }
                    }
                  }
                }
                JOINT Character1_LeftHandPinky1
                {
                  OFFSET 1.45006 -0.450852 -0.482263
                  CHANNELS 6 Xposition Yposition Zposition Zrotation Xrotation Yrotation
                  JOINT Character1_LeftHandPinky2
                  {
                    OFFSET 0.289755 -0.353116 -0.0298239
                    CHANNELS 6 Xposition Yposition Zposition Zrotation Xrotation Yrotation
                    JOINT Character1_LeftHandPinky3
                    {
                      OFFSET 0.271225 -0.36969 -0.0280318
                      CHANNELS 6 Xposition Yposition Zposition Zrotation Xrotation Yrotation
                      JOINT Character1_LeftHandPinky4
                      {
                        OFFSET 0.192971 -0.263028 -0.0199441
                        CHANNELS 6 Xposition Yposition Zposition Zrotation Xrotation Yrotation
                        End Site
                        {
                          OFFSET 0 0 0
                        }
                      }
                    }
                  }
                }
              }
            }
          }
        }
        JOINT Character1_RightShoulder
        {
          OFFSET -1.05262 2.257 0
          CHANNELS 6 Xposition Yposition Zposition Zrotation Xrotation Yrotation
          JOINT Character1_RightArm
          {
            OFFSET -1.59242 -0.163546 -0.172858
            CHANNELS 6 Xposition Yposition Zposition Zrotation Xrotation Yrotation
            JOINT Character1_RightForeArm
            {
              OFFSET -4.24527 -1.87825 -0.325214
              CHANNELS 6 Xposition Yposition Zposition Zrotation Xrotation Yrotation
              JOINT Character1_RightHand
              {
                OFFSET -2.98616 -1.3058 0.326125
                CHANNELS 6 Xposition Yposition Zposition Zrotation Xrotation Yrotation
                JOINT Character1_RightHandThumb1
                {
                  OFFSET -0.707167 -0.296375 0.777355
                  CHANNELS 6 Xposition Yposition Zposition Zrotation Xrotation Yrotation
                  JOINT Character1_RightHandThumb2
                  {
                    OFFSET -0.248522 -0.159518 0.331579
                    CHANNELS 6 Xposition Yposition Zposition Zrotation Xrotation Yrotation
                    JOINT Character1_RightHandThumb3
                    {
                      OFFSET -0.259194 -0.254062 0.227962
                      CHANNELS 6 Xposition Yposition Zposition Zrotation Xrotation Yrotation
                      JOINT Character1_RightHandThumb4
                      {
                        OFFSET -0.226667 -0.258212 0.206781
                        CHANNELS 6 Xposition Yposition Zposition Zrotation Xrotation Yrotation
                        End Site
                        {
                          OFFSET 0 0 0
                        }
                      }
                    }
                  }
                }
                JOINT Character1_RightHandIndex1
                {
                  OFFSET -1.48444 -0.354191 0.611988
                  CHANNELS 6 Xposition Yposition Zposition Zrotation Xrotation Yrotation
                  JOINT Character1_RightHandIndex2
                  {
                    OFFSET -0.504724 -0.451986 0.0493902
                    CHANNELS 6 Xposition Yposition Zposition Zrotation Xrotation Yrotation
                    JOINT Character1_RightHandIndex3
                    {
                      OFFSET -0.296442 -0.265512 0.0299122
                      CHANNELS 6 Xposition Yposition Zposition Zrotation Xrotation Yrotation
                      JOINT Character1_RightHandIndex4
                      {
                        OFFSET -0.197651 -0.217279 0.0208604
                        CHANNELS 6 Xposition Yposition Zposition Zrotation Xrotation Yrotation
                        End Site
                        {
                          OFFSET 0 0 0
                        }
                      }
                    }
                  }
                }
                JOINT Character1_RightHandMiddle1
                {
                  OFFSET -1.48537 -0.31703 0.212681
                  CHANNELS 6 Xposition Yposition Zposition Zrotation Xrotation Yrotation
                  JOINT Character1_RightHandMiddle2
                  {
                    OFFSET -0.67206 -0.620938 0.0176342
                    CHANNELS 6 Xposition Yposition Zposition Zrotation Xrotation Yrotation
                    JOINT Character1_RightHandMiddle3
                    {
                      OFFSET -0.264031 -0.321119 0.00884187
                      CHANNELS 6 Xposition Yposition Zposition Zrotation Xrotation Yrotation
                      JOINT Character1_RightHandMiddle4
                      {
                        OFFSET -0.180854 -0.241264 0.00658234
                        CHANNELS 6 Xposition Yposition Zposition Zrotation Xrotation Yrotation
                        End Site
                        {
                          OFFSET 0 0 0
                        }
                      }
                    }
                  }
                }
                JOINT Character1_RightHandRing1
                {
                  OFFSET -1.48599 -0.345215 -0.172737
                  CHANNELS 6 Xposition Yposition Zposition Zrotation Xrotation Yrotation
                  JOINT Character1_RightHandRing2
                  {
                    OFFSET -0.522197 -0.611354 0.0123872
                    CHANNELS 6 Xposition Yposition Zposition Zrotation Xrotation Yrotation
                    JOINT Character1_RightHandRing3
                    {
                      OFFSET -0.273489 -0.359549 0.0073909
                      CHANNELS 6 Xposition Yposition Zposition Zrotation Xrotation Yrotation
                      JOINT Character1_RightHandRing4
                      {
                        OFFSET -0.175077 -0.230165 0.00473107
                        CHANNELS 6 Xposition Yposition Zposition Zrotation Xrotation Yrotation
                        End Site
                        {
                          OFFSET 0 0 0
                        }
                      }
                    }
                  }
                }
                JOINT Character1_RightHandPinky1
                {
                  OFFSET -1.45006 -0.450851 -0.482263
                  CHANNELS 6 Xposition Yposition Zposition Zrotation Xrotation Yrotation
                  JOINT Character1_RightHandPinky2
                  {
                    OFFSET -0.289757 -0.353119 -0.0298232
                    CHANNELS 6 Xposition Yposition Zposition Zrotation Xrotation Yrotation
                    JOINT Character1_RightHandPinky3
                    {
                      OFFSET -0.271225 -0.36969 -0.0280314
                      CHANNELS 6 Xposition Yposition Zposition Zrotation Xrotation Yrotation
                      JOINT Character1_RightHandPinky4
                      {
                        OFFSET -0.192971 -0.263025 -0.0199447
                        CHANNELS 6 Xposition Yposition Zposition Zrotation Xrotation Yrotation
                        End Site
                        {
                          OFFSET 0 0 0
                        }
                      }
                    }
                  }
                }
              }
            }
          }
        }
        JOINT Character1_Neck
        {
          OFFSET 0 2.01813 0
          CHANNELS 6 Xposition Yposition Zposition Zrotation Xrotation Yrotation
          JOINT Character1_Head
          {
            OFFSET 0 3.0075 0
            CHANNELS 6 Xposition Yposition Zposition Zrotation Xrotation Yrotation
            End Site
            {
              OFFSET 0 0 0
            }
          }
        }
      }
    }
  }
}
MOTION
Frames:	3
Frame Time:	0.0166667
-0.000198601 14.0114 -0.891438 0.0118042 -0.827176 -16.7146 1.33984 -0.94285 -5.77206e-008 0.280657 -23.5546 -3.42882 1.03111 -5.48941 0.514161 3.26469 31.1502 17.1099 0.584472 -7.37543 -1.61389 -6.72132 -5.01546 0.791274 0.308451 -0.815751 3.43202 -1.18857e-014 5.50869e-007 -3.32422e-015 -1.33984 -0.94285 3.88333e-007 -11.3556 -1.71757 3.05332 -1.03111 -5.48942 0.514162 12.4982 17.5017 -3.97414 -0.584472 -7.37542 -1.61389 -0.203356 -15.6676 1.30502 -0.308451 -0.815752 3.43202 -3.46359e-012 3.11399e-006 9.36639e-005 -1.90808e-009 1.05262 -1.3298e-008 0.00717198 -0.0229276 2.3359 1.27704e-008 2.01813 -9.08783e-008 0.444315 -1.64419 -18.7291 6.98117e-009 2.01813 -7.3063e-008 0.947935 -1.41568 -18.6933 1.05262 2.25701 -1.12713e-007 -5.53858e-012 -1.30172e-011 -0.000199668 1.59242 -0.163556 -0.172859 -49.6798 10.6621 -34.7839 4.24532 -1.8781 -0.325414 10.2423 -31.1846 -79.1634 2.98612 -1.30588 0.326145 139.883 -69.4959 166.466 0.707167 -0.296377 0.777355 1.16533 25.8153 -8.04119 0.248522 -0.159516 0.331579 -2.46748 -2.57449 -4.90243 0.259194 -0.25406 0.227961 2.61595 4.74019 6.0953 0.226667 -0.258213 0.206782 1.92593e-011 -9.36008e-005 1.17945e-005 1.48444 -0.354189 0.611987 19.5134 -7.62817 -17.2731 0.504725 -0.451988 0.0493909 -55.8929 -16.3278 -9.08184 0.296443 -0.265513 0.0299129 -24.3822 1.50902 -0.872409 0.197652 -0.217278 0.0208596 -1.17941e-011 -8.09222e-005 -8.35041e-006 1.48537 -0.317033 0.21268 2.71033 -12.8599 -5.15385 0.672059 -0.620934 0.0176345 -55.5888 1.04792 -0.439825 0.264032 -0.32112 0.00884271 -17.5065 0.252881 -0.286078 0.180854 -0.241265 0.0065843 1.16665e-011 -4.37478e-005 1.52775e-005 1.48599 -0.345215 -0.172738 1.28735 -11.9418 -6.39155 0.522197 -0.611355 0.0123874 -38.7886 0.52012 -0.342182 0.273491 -0.359549 0.0073912 -17.1255 0.147312 -0.208083 0.175076 -0.230164 0.0047314 1.50997e-012 -2.0271e-005 4.26253e-006 1.45006 -0.450852 -0.482263 -15.0393 -9.29058 -6.70292 0.289756 -0.353117 -0.0298239 -8.52668 -0.338636 0.396101 0.271225 -0.36969 -0.0280319 -9.89862 -0.441389 0.427517 0.192971 -0.263027 -0.0199441 1.52525e-011 -2.98972e-005 2.9233e-005 -1.05263 2.257 3.65728e-007 -5.53858e-012 -1.20471e-011 -0.000199668 -1.59242 -0.163547 -0.172859 3.62669 -7.48671 17.4637 -4.24527 -1.87825 -0.325265 9.03354 -11.7747 119.586 -2.98616 -1.3058 0.326124 -117.313 -77.5183 -135.972 -0.707168 -0.296375 0.777355 26.1278 40.1675 -11.1965 -0.248522 -0.159518 0.331579 4.85383 -4.69318 9.38098 -0.259194 -0.254063 0.227962 -4.9305 -9.17562 -2.88719 -0.226667 -0.258211 0.206783 2.43305e-012 -7.06777e-006 1.97063e-005 -1.48444 -0.354191 0.611988 7.27266 11.721 -2.7562 -0.504724 -0.451986 0.0493904 0.0218303 0.0122566 0.00872212 -0.296442 -0.265512 0.0299121 -5.94359 -0.417177 -0.220573 -0.197651 -0.21728 0.0208606 -1.19446e-011 7.65046e-005 8.94554e-006 -1.48537 -0.31703 0.212679 -2.5766 7.99847 -6.27204 -0.67206 -0.620937 0.0176345 0.682698 0.0245109 0.022006 -0.264032 -0.321119 0.00884162 0.0793719 0.0569835 -0.0476438 -0.180854 -0.241265 0.00658374 1.55707e-010 0.000118043 -7.55754e-005 -1.48599 -0.345216 -0.172738 0.910448 12.3413 -7.78781 -0.522198 -0.611355 0.0123868 30.5941 0.392663 0.300442 -0.273489 -0.359549 0.00739056 13.6911 0.165329 0.146435 -0.175077 -0.230166 0.00473262 1.46564e-012 -4.21705e-006 1.99918e-005 -1.45006 -0.450852 -0.482263 16.3863 0.671804 -10.456 -0.289757 -0.353119 -0.0298238 28.2578 -1.31285 -1.08316 -0.271225 -0.36969 -0.0280314 27.1258 -1.24125 -1.11339 -0.192971 -0.263025 -0.0199442 9.66224e-012 -8.26456e-005 6.69454e-006 -3.24059e-008 2.01813 1.80393e-007 5.28412e-012 -1.00418e-011 29.8401 1.19743e-008 3.0075 -3.08992e-007 -9.41695e-012 3.26722e-012 29.8395 
-0.000184637 14.0115 -0.8762 0.0109766 -0.768095 -16.7123 1.33984 -0.942849 3.33757e-009 0.279483 -23.5597 -3.42932 1.03111 -5.48941 0.514161 3.26423 31.174 17.116 0.584472 -7.37543 -1.61389 -6.72466 -5.09183 0.781275 0.308451 -0.815751 3.43202 -1.22648e-014 5.5794e-007 -3.44053e-015 -1.33984 -0.942849 3.85943e-007 -11.3305 -1.6477 3.046 -1.03111 -5.48942 0.514162 12.4418 17.3991 -3.9401 -0.584473 -7.37543 -1.61389 -0.168573 -15.685 1.30362 -0.308451 -0.815751 3.43202 -3.53091e-012 3.16959e-006 9.38135e-005 -1.94538e-009 1.05262 -1.30145e-008 0.00665986 -0.0212916 2.33597 1.29138e-008 2.01813 -9.14891e-008 0.412605 -1.52674 -18.7267 7.16758e-009 2.01813 -7.21604e-008 0.880213 -1.31456 -18.6939 1.05262 2.25701 -9.36208e-008 -5.64633e-012 -1.32681e-011 -0.000201804 1.59242 -0.163556 -0.172859 -49.9135 10.7933 -34.5197 4.24533 -1.87809 -0.325413 10.1874 -30.8053 -79.1295 2.98612 -1.30588 0.326146 139.871 -69.5141 166.45 0.707166 -0.296377 0.777353 1.48765 25.5549 -7.97459 0.248522 -0.159516 0.33158 -2.6324 -2.73142 -5.2192 0.259194 -0.25406 0.22796 2.5618 4.6459 5.97151 0.226666 -0.258213 0.206782 1.60302e-011 -7.37706e-005 1.24503e-005 1.48444 -0.354189 0.611987 20.2065 -7.40938 -16.876 0.504724 -0.451988 0.0493909 -55.7291 -16.3398 -9.08496 0.296442 -0.265513 0.0299126 -24.3486 1.50044 -0.877113 0.197652 -0.217277 0.0208595 -1.16025e-011 -8.04739e-005 -8.26382e-006 1.48537 -0.317032 0.212679 3.0944 -12.1661 -4.84718 0.672059 -0.620936 0.017635 -55.4969 1.04596 -0.440005 0.264032 -0.321119 0.00884277 -17.4768 0.252444 -0.285624 0.180854 -0.241264 0.0065841 1.7617e-011 -6.3078e-005 1.60014e-005 1.48599 -0.345214 -0.172738 2.30373 -11.9556 -5.69671 0.522197 -0.611355 0.0123876 -39.4734 0.531005 -0.344815 0.273491 -0.359549 0.00739148 -17.4177 0.152092 -0.211392 0.175074 -0.230163 0.00473101 4.15024e-012 -4.98573e-005 4.7711e-006 1.45006 -0.450852 -0.482262 -14.391 -9.11933 -6.50982 0.289755 -0.353116 -0.0298239 -8.57495 -0.340706 0.398201 0.271225 -0.36969 -0.0280318 -9.93824 -0.443016 0.429221 0.192971 -0.263028 -0.0199441 1.59763e-011 -2.99845e-005 3.05352e-005 -1.05262 2.257 -2.47963e-007 -5.64633e-012 -1.22944e-011 -0.000201804 -1.59242 -0.163546 -0.172858 4.0155 -7.32527 17.4927 -4.24527 -1.87825 -0.325211 8.89072 -11.7239 119.319 -2.98616 -1.3058 0.326125 -116.859 -77.6324 -135.885 -0.707167 -0.296375 0.777355 26.1278 40.1675 -11.1965 -0.248522 -0.159518 0.331579 4.85383 -4.69319 9.38097 -0.259194 -0.254062 0.227962 -4.9305 -9.17562 -2.88719 -0.226667 -0.258212 0.206781 2.80462e-012 -8.19265e-006 1.96345e-005 -1.48444 -0.354191 0.611988 7.27266 11.721 -2.7562 -0.504724 -0.451986 0.0493902 0.0218526 0.0122599 0.00872045 -0.296442 -0.265512 0.0299123 -5.94358 -0.417181 -0.220576 -0.197651 -0.217279 0.0208604 -1.2068e-011 7.60344e-005 9.09275e-006 -1.48537 -0.31703 0.212681 -2.5766 7.99847 -6.27204 -0.67206 -0.620938 0.0176342 0.682699 0.0245027 0.0220051 -0.264031 -0.321119 0.00884193 0.079372 0.0569818 -0.0476434 -0.180854 -0.241264 0.00658224 1.53031e-010 0.00011719 -7.48203e-005 -1.48599 -0.345215 -0.172737 0.910446 12.3413 -7.78781 -0.522197 -0.611354 0.0123873 30.5941 0.392661 0.300448 -0.273489 -0.359549 0.00739099 13.6911 0.165329 0.146438 -0.175077 -0.230165 0.00473092 2.67713e-012 -7.50668e-006 2.03453e-005 -1.45006 -0.450851 -0.482263 16.3863 0.671817 -10.456 -0.289757 -0.353119 -0.0298232 28.2578 -1.31285 -1.08316 -0.271225 -0.36969 -0.0280314 27.1258 -1.24124 -1.11338 -0.192971 -0.263025 -0.0199448 9.31525e-012 -8.27917e-005 6.44859e-006 -3.28467e-008 2.01813 1.79259e-007 5.11302e-012 -9.76271e-012 29.8401 1.20462e-008 3.0075 -3.05415e-007 -9.59282e-012 3.31652e-012 29.8395 
-0.000171061 14.0117 -0.857199 0.0101467 -0.709013 -16.71 1.33984 -0.94285 -1.20067e-007 0.27418 -23.55 -3.42754 1.03111 -5.48941 0.514161 3.26343 31.2016 17.1225 0.584472 -7.37542 -1.61389 -6.72814 -5.1876 0.7686 0.308451 -0.81575 3.43202 -1.26367e-014 5.64875e-007 -3.55461e-015 -1.33984 -0.94285 3.82977e-007 -11.3049 -1.54665 3.03787 -1.03111 -5.48942 0.514162 12.3728 17.2722 -3.89577 -0.584473 -7.37543 -1.61389 -0.125695 -15.7078 1.30199 -0.308452 -0.815751 3.43202 -3.5972e-012 3.22412e-006 9.39599e-005 -1.98196e-009 1.05262 -1.27365e-008 0.00614755 -0.0196545 2.33604 1.30545e-008 2.01813 -9.20882e-008 0.380892 -1.40929 -18.7243 7.35042e-009 2.01813 -7.12751e-008 0.812494 -1.21344 -18.6943 1.05262 2.25701 -7.42441e-008 -5.75248e-012 -1.35193e-011 -0.000204036 1.59242 -0.163556 -0.172859 -50.1477 10.9233 -34.2548 4.24532 -1.8781 -0.325407 10.1322 -30.4262 -79.0953 2.98613 -1.30587 0.326147 139.859 -69.5324 166.434 0.707166 -0.296376 0.777353 1.80961 25.2948 -7.90652 0.248522 -0.159516 0.331579 -2.79821 -2.88744 -5.53645 0.259194 -0.25406 0.227961 2.50746 4.55175 5.84763 0.226666 -0.258213 0.206782 1.58983e-011 -6.9582e-005 1.30935e-005 1.48444 -0.354189 0.611987 20.8976 -7.18587 -16.4819 0.504724 -0.451988 0.0493909 -55.5654 -16.3519 -9.08805 0.296441 -0.265512 0.0299126 -24.315 1.49187 -0.881808 0.197652 -0.217278 0.0208595 -1.14161e-011 -8.00564e-005 -8.17146e-006 1.48537 -0.317032 0.212679 3.4737 -11.4705 -4.54603 0.672059 -0.620934 0.0176343 -55.405 1.04399 -0.440167 0.264034 -0.321119 0.00884316 -17.4471 0.251995 -0.285174 0.180853 -0.241264 0.00658382 1.82203e-011 -6.24591e-005 1.67114e-005 1.48599 -0.345215 -0.172738 3.32024 -11.9573 -5.00172 0.522197 -0.611355 0.0123872 -40.1583 0.541935 -0.347324 0.273492 -0.359549 0.00739163 -17.7099 0.156877 -0.214673 0.175074 -0.230163 0.00473089 4.47796e-012 -4.86981e-005 5.26993e-006 1.45006 -0.450851 -0.482263 -13.7436 -8.94595 -6.31879 0.289756 -0.353117 -0.0298239 -8.62323 -0.342786 0.400279 0.271225 -0.36969 -0.0280317 -9.97786 -0.444645 0.430933 0.192971 -0.263027 -0.0199441 1.67237e-011 -3.01248e-005 3.18212e-005 -1.05262 2.257 2.72669e-007 -5.75248e-012 -1.25405e-011 -0.000204036 -1.59242 -0.163546 -0.172857 4.40478 -7.16445 17.5228 -4.24528 -1.87822 -0.325351 8.74725 -11.6718 119.049 -2.98616 -1.30579 0.326123 -116.4 -77.7463 -135.793 -0.707167 -0.296376 0.777355 26.1278 40.1675 -11.1965 -0.248522 -0.159517 0.33158 4.85383 -4.69317 9.38097 -0.259194 -0.254063 0.22796 -4.9305 -9.17562 -2.8872 -0.226667 -0.258211 0.206782 3.21338e-012 -9.4009e-006 1.96067e-005 -1.48444 -0.354191 0.611988 7.27267 11.721 -2.7562 -0.504724 -0.451986 0.049391 0.0218571 0.0122632 0.00871849 -0.296442 -0.265512 0.0299125 -5.94359 -0.417186 -0.220577 -0.197651 -0.217279 0.0208602 -1.20616e-011 7.47858e-005 9.23858e-006 -1.48537 -0.31703 0.21268 -2.5766 7.99847 -6.27204 -0.67206 -0.620937 0.0176357 0.682699 0.0244972 0.0220042 -0.264031 -0.321119 0.00884228 0.0793722 0.05698 -0.0476431 -0.180854 -0.241264 0.00658354 1.51104e-010 0.000116891 -7.40628e-005 -1.48599 -0.345215 -0.172737 0.910445 12.3413 -7.78781 -0.522197 -0.611355 0.0123875 30.5942 0.392667 0.300461 -0.273489 -0.359548 0.00739148 13.6911 0.165329 0.14644 -0.175077 -0.230165 0.00473235 3.81827e-012 -1.05808e-005 2.06919e-005 -1.45006 -0.450851 -0.482262 16.3863 0.671807 -10.456 -0.289757 -0.353119 -0.0298231 28.2578 -1.31285 -1.08316 -0.271225 -0.36969 -0.0280314 27.1258 -1.24122 -1.11339 -0.192971 -0.263025 -0.0199458 8.98636e-012 -8.3027e-005 6.20735e-006 -3.3279e-008 2.01813 1.78147e-007 4.94764e-012 -9.49037e-012 29.8401 1.21167e-008 3.00751 -3.02011e-007 -9.76821e-012 3.369e-012 29.8395 
